<?xml version="1.0" standalone="no"?>
<!DOCTYPE svg PUBLIC "-//W3C//DTD SVG 20010904//EN"
 "http://www.w3.org/TR/2001/REC-SVG-20010904/DTD/svg10.dtd">
<svg version="1.0" xmlns="http://www.w3.org/2000/svg"
 width="225.000000pt" height="224.000000pt" viewBox="0 0 225.000000 224.000000"
 preserveAspectRatio="xMidYMid meet">

<g transform="translate(0.000000,224.000000) scale(0.100000,-0.100000)"
fill="#000000" stroke="none">
<path d="M949 1978 c0 -7 -19 -52 -42 -100 l-43 -88 25 0 c18 0 22 3 14 11 -6
6 -8 19 -6 30 4 15 14 19 44 19 36 0 40 -3 46 -30 5 -26 10 -30 39 -30 l33 0
-23 43 c-13 23 -34 68 -47 100 -21 54 -38 73 -40 45z m17 -115 c-2 -3 -15 -3
-28 -1 -24 3 -24 4 -10 38 l14 35 14 -34 c8 -19 12 -36 10 -38z"/>
<path d="M1168 1954 c4 -29 2 -35 -9 -29 -11 6 -12 5 -1 -6 17 -18 15 -94 -2
-108 -22 -18 -39 22 -33 75 5 49 -4 56 -27 22 -41 -58 15 -153 62 -106 9 9 12
9 12 0 0 -7 9 -12 20 -12 19 0 20 7 20 100 0 98 -1 100 -23 100 -21 0 -23 -4
-19 -36z"/>
<path d="M1303 1975 c-9 -25 2 -27 22 -5 17 18 17 20 1 20 -9 0 -19 -7 -23
-15z"/>
<path d="M1266 1914 c-22 -22 -21 -87 2 -107 44 -40 102 -8 102 55 0 30 -23
68 -41 68 -2 0 -4 -28 -4 -62 0 -53 -3 -63 -18 -66 -17 -3 -18 3 -15 62 3 69
0 76 -26 50z"/>
<path d="M1066 1505 c-15 -8 -39 -15 -52 -15 -19 0 -24 -7 -29 -37 -4 -21 -9
-50 -11 -65 -4 -21 -2 -28 9 -28 9 0 17 6 20 13 4 9 7 9 17 0 10 -9 10 -16 2
-25 -6 -7 -31 -54 -56 -103 -31 -61 -44 -97 -40 -112 7 -27 65 -63 102 -64
l27 -1 -26 -8 c-15 -4 -45 -4 -68 0 -47 8 -52 0 -15 -29 38 -30 113 -29 151 3
19 16 47 26 88 31 70 8 122 37 131 70 4 16 -5 47 -25 90 -17 36 -31 68 -31 73
0 4 -9 18 -20 32 -26 33 -25 42 5 34 25 -6 25 -6 19 37 -11 69 -18 80 -60 96
-59 23 -105 26 -138 8z"/>
<path d="M1809 1463 c-13 -16 -12 -17 4 -4 9 7 17 15 17 17 0 8 -8 3 -21 -13z"/>
<path d="M1759 1443 c-13 -16 -12 -17 4 -4 9 7 17 15 17 17 0 8 -8 3 -21 -13z"/>
<path d="M1739 1383 l-24 -28 28 24 c25 23 32 31 24 31 -2 0 -14 -12 -28 -27z"/>
<path d="M410 1385 c-14 -8 -20 -14 -15 -14 6 0 21 6 35 14 14 8 21 14 15 14
-5 0 -21 -6 -35 -14z"/>
<path d="M1704 1378 l-19 -23 23 19 c12 11 22 21 22 23 0 8 -8 2 -26 -19z"/>
<path d="M1639 1303 l-24 -28 28 24 c25 23 32 31 24 31 -2 0 -14 -12 -28 -27z"/>
<path d="M1669 1303 c-13 -16 -12 -17 4 -4 9 7 17 15 17 17 0 8 -8 3 -21 -13z"/>
<path d="M1619 1243 c-13 -16 -12 -17 4 -4 16 13 21 21 13 21 -2 0 -10 -8 -17
-17z"/>
<path d="M1564 1218 l-19 -23 23 19 c21 18 27 26 19 26 -2 0 -12 -10 -23 -22z"/>
<path d="M1519 1163 l-24 -28 28 24 c15 14 27 26 27 28 0 8 -8 1 -31 -24z"/>
<path d="M1499 1103 c-13 -16 -12 -17 4 -4 16 13 21 21 13 21 -2 0 -10 -8 -17
-17z"/>
<path d="M1449 1083 c-13 -16 -12 -17 4 -4 16 13 21 21 13 21 -2 0 -10 -8 -17
-17z"/>
<path d="M1384 1008 l-19 -23 23 19 c21 18 27 26 19 26 -2 0 -12 -10 -23 -22z"/>
<path d="M1580 979 c0 -8 -9 -31 -20 -52 -26 -49 -25 -73 5 -103 l25 -24 -21
-21 c-25 -25 -66 -112 -75 -158 -17 -89 65 -141 220 -141 79 1 96 4 131 25 43
27 100 33 109 13 3 -7 5 -4 3 7 -4 32 -67 32 -130 0 l-52 -27 27 28 c15 16 29
41 33 55 9 38 -22 133 -60 183 -33 43 -33 45 -14 62 24 22 24 54 -1 101 -11
21 -20 44 -20 52 0 11 -5 10 -25 -3 -13 -9 -38 -16 -55 -16 -17 0 -42 7 -55
16 -20 13 -25 14 -25 3z"/>
<path d="M1364 948 l-19 -23 23 19 c21 18 27 26 19 26 -2 0 -12 -10 -23 -22z"/>
<path d="M1319 933 c-13 -16 -12 -17 4 -4 16 13 21 21 13 21 -2 0 -10 -8 -17
-17z"/>
<path d="M1309 883 c-13 -16 -12 -17 4 -4 16 13 21 21 13 21 -2 0 -10 -8 -17
-17z"/>
<path d="M1259 863 c-13 -16 -12 -17 4 -4 9 7 17 15 17 17 0 8 -8 3 -21 -13z"/>
<path d="M1169 723 c-13 -16 -12 -17 4 -4 9 7 17 15 17 17 0 8 -8 3 -21 -13z"/>
<path d="M1079 653 l-24 -28 28 24 c15 14 27 26 27 28 0 8 -8 1 -31 -24z"/>
<path d="M1119 663 c-13 -16 -12 -17 4 -4 9 7 17 15 17 17 0 8 -8 3 -21 -13z"/>
<path d="M1059 593 c-13 -16 -12 -17 4 -4 16 13 21 21 13 21 -2 0 -10 -8 -17
-17z"/>
<path d="M1014 578 l-19 -23 23 19 c21 18 27 26 19 26 -2 0 -12 -10 -23 -22z"/>
<path d="M692 534 c10 -10 20 -16 22 -13 3 3 -5 11 -17 18 -21 13 -21 12 -5
-5z"/>
<path d="M992 520 c-18 -17 -29 -30 -24 -30 5 0 21 14 37 30 37 38 30 38 -13
0z"/>
<path d="M296 512 c-2 -4 12 -6 32 -4 56 5 62 10 15 11 -23 1 -44 -3 -47 -7z"/>
<path d="M730 516 c0 -2 18 -6 40 -8 22 -2 40 0 40 4 0 5 -18 8 -40 8 -22 0
-40 -2 -40 -4z"/>
</g>
</svg>
